<svg width="50" height="51" viewBox="0 0 50 51" fill="none" xmlns="http://www.w3.org/2000/svg">
<path fill-rule="evenodd" clip-rule="evenodd" d="M23.5075 30.5999C26.2563 30.5999 28.4947 28.3146 28.4947 25.498C28.4947 24.3893 28.1423 23.3628 27.5542 22.5248C26.6475 21.2417 25.1741 20.3999 23.5075 20.3999C21.8472 20.3999 20.3725 21.2365 19.4671 22.5248C18.8739 23.3628 18.5266 24.3893 18.5215 25.498C18.5215 28.3146 20.76 30.5999 23.5075 30.5999Z" fill="white"/>
<mask id="mask0" mask-type="alpha" maskUnits="userSpaceOnUse" x="0" y="0" width="50" height="51">
<path fill-rule="evenodd" clip-rule="evenodd" d="M0.0747986 0.352783H49.5203V50.7727H0.0747986V0.352783Z" fill="white"/>
</mask>
<g mask="url(#mask0)">
<path fill-rule="evenodd" clip-rule="evenodd" d="M35.5829 19.3869V14.5281H34.9596L30.8058 14.5433L30.8257 19.4021L35.5829 19.3869Z" fill="white"/>
<path fill-rule="evenodd" clip-rule="evenodd" d="M24.7571 0.352783C11.1076 0.352783 0 11.6634 0 25.5608C0 39.4634 11.1076 50.7727 24.7571 50.7727C38.4115 50.7727 49.5203 39.4634 49.5203 25.5608C49.5203 11.6634 38.4115 0.352783 24.7571 0.352783ZM38.8404 22.6199V34.3608C38.8404 37.416 36.4007 39.9 33.3963 39.9H16.1191C13.1184 39.9 10.6787 37.416 10.6787 34.3608V16.7698C10.6787 13.7108 13.1184 11.2268 16.1191 11.2268H33.3963C36.4007 11.2268 38.8404 13.7108 38.8404 16.7698V22.6199Z" fill="white"/>
</g>
<path fill-rule="evenodd" clip-rule="evenodd" d="M31.9659 26.2729C31.9659 30.6223 28.4952 34.1633 24.2198 34.1633C19.9507 34.1633 16.48 30.6223 16.48 26.2729C16.48 25.2297 16.6856 24.2272 17.0478 23.3142H12.8226V35.1261C12.8226 36.6534 14.0359 37.8856 15.535 37.8856H32.906C34.4038 37.8856 35.6183 36.6534 35.6183 35.1261V23.3142H31.3931C31.7553 24.2272 31.9659 25.2297 31.9659 26.2729Z" fill="white"/>
</svg>
