<svg width="51" height="51" viewBox="0 0 51 51" fill="none" xmlns="http://www.w3.org/2000/svg">
<path fill-rule="evenodd" clip-rule="evenodd" d="M50.5164 25.5C50.5164 39.5827 39.3531 51 25.5836 51C11.8141 51 0.650757 39.5827 0.650757 25.5C0.650757 11.4173 11.8141 0 25.5836 0C39.3531 0 50.5164 11.4173 50.5164 25.5Z" fill="white"/>
<path fill-rule="evenodd" clip-rule="evenodd" d="M24.6644 35.8546H26.6293C26.6293 35.8546 27.2222 35.79 27.5245 35.4667C27.8034 35.1694 27.795 34.6133 27.795 34.6133C27.795 34.6133 27.7559 32.0056 28.9802 31.6222C30.1871 31.2427 31.7337 34.1411 33.3768 35.2555C34.6183 36.1 35.562 35.9147 35.562 35.9147L39.9498 35.8546C39.9498 35.8546 42.246 35.7144 41.1567 33.9282C41.0675 33.7814 40.5226 32.6069 37.8928 30.1934C35.1415 27.6679 35.5096 28.0751 38.8254 23.7048C40.8449 21.0436 41.6514 19.419 41.4004 18.7228C41.1589 18.0592 39.6754 18.2357 39.6754 18.2357L34.7316 18.266C34.7316 18.266 34.3657 18.2164 34.0935 18.3758C33.8275 18.533 33.6579 18.9016 33.6579 18.9016C33.6579 18.9016 32.8754 20.962 31.8319 22.7113C29.6316 26.4096 28.7515 26.6032 28.3918 26.3749C27.5552 25.8381 27.7643 24.2245 27.7643 23.0782C27.7643 19.4962 28.3137 18.0029 26.6946 17.6173C26.1586 17.4882 25.762 17.4038 24.3894 17.3911C22.6248 17.3718 21.1328 17.3955 20.2873 17.8049C19.7251 18.0763 19.2917 18.6842 19.555 18.7184C19.8818 18.7614 20.623 18.917 21.0151 19.4449C21.5204 20.1257 21.5031 21.6554 21.5031 21.6554C21.5031 21.6554 21.7948 25.8729 20.8233 26.3964C20.1568 26.7566 19.2438 26.0213 17.2805 22.6683C16.2766 20.951 15.5181 19.0527 15.5181 19.0527C15.5181 19.0527 15.3719 18.6991 15.1109 18.5093C14.7924 18.2787 14.3502 18.2059 14.3502 18.2059L9.65513 18.2357C9.65513 18.2357 8.94959 18.255 8.69024 18.559C8.46157 18.8282 8.67295 19.3865 8.67295 19.3865C8.67295 19.3865 12.3484 27.8941 16.5114 32.1805C20.3286 36.1127 24.6644 35.8546 24.6644 35.8546Z" fill="url(#paint0_linear)"/>
<defs>
<linearGradient id="paint0_linear" x1="57.8829" y1="26.6592" x2="42.0081" y2="-1.47395" gradientUnits="userSpaceOnUse">
<stop stop-color="#764BA2"/>
<stop offset="1" stop-color="#667EEA"/>
</linearGradient>
</defs>
</svg>
